<svg xmlns="http://www.w3.org/2000/svg" xmlns:xlink="http://www.w3.org/1999/xlink" width="500" zoomAndPan="magnify" viewBox="0 0 375 226.499993" height="302" preserveAspectRatio="xMidYMid meet" version="1.0"><defs><clipPath id="id1"><path d="M 0.414062 89 L 106 89 L 106 157 L 0.414062 157 Z M 0.414062 89 " clip-rule="nonzero"/></clipPath><clipPath id="id2"><path d="M 268 89 L 374.585938 89 L 374.585938 157 L 268 157 Z M 268 89 " clip-rule="nonzero"/></clipPath><clipPath id="id3"><path d="M 0.414062 94 L 4 94 L 4 226 L 0.414062 226 Z M 0.414062 94 " clip-rule="nonzero"/></clipPath><clipPath id="id4"><path d="M 371 14 L 374.585938 14 L 374.585938 147 L 371 147 Z M 371 14 " clip-rule="nonzero"/></clipPath></defs><path fill="rgb(0%, 0%, 0%)" d="M 122.816406 -0.15625 L 253.027344 -0.15625 L 253.027344 173.457031 L 122.816406 173.457031 L 122.816406 -0.15625 " fill-opacity="1" fill-rule="nonzero"/><g clip-path="url(#id1)"><path fill="rgb(0%, 0%, 0%)" d="M 99.066406 92.335938 C 101.027344 92.335938 102.640625 93.949219 102.640625 95.910156 L 102.640625 149.511719 C 102.640625 151.472656 101.027344 153.085938 99.066406 153.085938 L 7.273438 153.085938 C 5.3125 153.085938 3.703125 151.472656 3.703125 149.511719 L 3.703125 95.910156 C 3.703125 93.949219 5.3125 92.335938 7.273438 92.335938 L 99.066406 92.335938 M 99.066406 89.039062 L 7.273438 89.039062 C 3.492188 89.039062 0.414062 92.125 0.414062 95.910156 L 0.414062 149.511719 C 0.414062 153.296875 3.492188 156.382812 7.273438 156.382812 L 99.066406 156.382812 C 102.847656 156.382812 105.929688 153.296875 105.929688 149.511719 L 105.929688 95.910156 C 105.929688 92.125 102.847656 89.039062 99.066406 89.039062 " fill-opacity="1" fill-rule="nonzero"/></g><g clip-path="url(#id2)"><path fill="rgb(0%, 0%, 0%)" d="M 367.519531 92.335938 C 369.476562 92.335938 371.089844 93.949219 371.089844 95.910156 L 371.089844 149.511719 C 371.089844 151.472656 369.476562 153.085938 367.519531 153.085938 L 275.722656 153.085938 C 273.765625 153.085938 272.152344 151.472656 272.152344 149.511719 L 272.152344 95.910156 C 272.152344 93.949219 273.765625 92.335938 275.722656 92.335938 L 367.519531 92.335938 M 367.519531 89.039062 L 275.722656 89.039062 C 271.941406 89.039062 268.863281 92.125 268.863281 95.910156 L 268.863281 149.511719 C 268.863281 153.296875 271.941406 156.382812 275.722656 156.382812 L 367.519531 156.382812 C 371.296875 156.382812 374.378906 153.296875 374.378906 149.511719 L 374.378906 95.910156 C 374.378906 92.125 371.296875 89.039062 367.519531 89.039062 " fill-opacity="1" fill-rule="nonzero"/></g><path fill="rgb(100%, 100%, 100%)" d="M 233.570312 92.335938 C 235.53125 92.335938 237.140625 93.949219 237.140625 95.910156 L 237.140625 149.511719 C 237.140625 151.472656 235.53125 153.085938 233.570312 153.085938 L 141.777344 153.085938 C 139.816406 153.085938 138.207031 151.472656 138.207031 149.511719 L 138.207031 95.910156 C 138.207031 93.949219 139.816406 92.335938 141.777344 92.335938 L 233.570312 92.335938 M 233.570312 89.039062 L 141.777344 89.039062 C 137.996094 89.039062 134.917969 92.125 134.917969 95.910156 L 134.917969 149.511719 C 134.917969 153.296875 137.996094 156.382812 141.777344 156.382812 L 233.570312 156.382812 C 237.351562 156.382812 240.433594 153.296875 240.433594 149.511719 L 240.433594 95.910156 C 240.433594 92.125 237.351562 89.039062 233.570312 89.039062 " fill-opacity="1" fill-rule="nonzero"/><g clip-path="url(#id3)"><path stroke-linecap="round" transform="matrix(-0.000000000000000601, -3.737095, 3.396757, -0.000000000000000546, 2.111648, 225.994684)" fill="none" stroke-linejoin="miter" d="M 0.500304 0.000480858 L 34.745235 0.000480858 " stroke="rgb(0%, 0%, 0%)" stroke-width="1" stroke-opacity="1" stroke-miterlimit="4"/></g><g clip-path="url(#id4)"><path stroke-linecap="round" transform="matrix(-0.000000000000000601, -3.737095, 3.396757, -0.000000000000000546, 372.981543, 146.663339)" fill="none" stroke-linejoin="miter" d="M 0.500488 -0.000316379 L 34.745419 -0.000316379 " stroke="rgb(0%, 0%, 0%)" stroke-width="1" stroke-opacity="1" stroke-miterlimit="4"/></g><path stroke-linecap="round" transform="matrix(2.748021, -2.546763, 2.308906, 2.491367, 137.011687, 93.058085)" fill="none" stroke-linejoin="miter" d="M 0.500118 0.000302123 L 30.260381 0.0000511719 " stroke="rgb(100%, 100%, 100%)" stroke-width="1" stroke-opacity="1" stroke-miterlimit="4"/></svg>